<svg width="116" height="62" viewBox="0 0 116 62" fill="none" xmlns="http://www.w3.org/2000/svg">
<path fill-rule="evenodd" clip-rule="evenodd" d="M42.8117 5.94782C44.488 6.06956 46.0268 6.47586 47.4283 7.16673C48.4415 7.69001 49.3326 8.31954 50.1016 9.05533V7.31243C50.4524 7.48716 50.7967 7.67821 51.1344 7.88556C53.2812 9.20343 54.9621 11.0005 56.1773 13.2768C57.3924 15.5531 58 18.109 58 20.9444C58 23.8198 57.3924 26.3956 56.1773 28.6719C54.9621 30.9482 53.2812 32.7453 51.1344 34.0632C50.7772 34.2825 50.4126 34.4836 50.0408 34.6664V32.8427C49.2748 33.5794 48.404 34.2059 47.4283 34.7221C46.0234 35.4477 44.4803 35.8736 42.7992 36C41.1337 35.8772 39.6186 35.4712 38.254 34.782C37.1499 34.2245 36.1981 33.5169 35.3984 32.6594V34.6052C35.0681 34.439 34.7441 34.2583 34.4263 34.0632C32.2795 32.7453 30.5986 30.9482 29.3834 28.6719C28.1278 26.3956 27.5 23.8198 27.5 20.9444C27.5 18.109 28.1278 15.5531 29.3834 13.2768C30.5986 11.0005 32.2795 9.20343 34.4263 7.88556C34.7441 7.69045 35.0681 7.50979 35.3984 7.34356V9.31605C36.1981 8.46724 37.1499 7.7508 38.254 7.16673C39.622 6.47586 41.1412 6.06956 42.8117 5.94782ZM37.0388 15.3135C38.416 13.8759 40.2184 13.157 42.4462 13.157C42.5585 13.157 42.6699 13.1589 42.7803 13.1627C42.8908 13.1589 43.0022 13.157 43.1145 13.157C44.5727 13.157 45.8688 13.4765 47.003 14.1155C48.0966 14.7944 48.9674 15.7129 49.6155 16.871C50.2231 18.0691 50.5269 19.4468 50.5269 21.0043C50.5269 22.5219 50.2231 23.8597 49.6155 25.0178C48.9674 26.2159 48.0763 27.1344 46.9422 27.7734C45.8081 28.4523 44.5322 28.7917 43.1145 28.7917C43.0022 28.7917 42.8908 28.7897 42.7803 28.7857C42.6699 28.7897 42.5585 28.7917 42.4462 28.7917C40.9475 28.7917 39.6514 28.4523 38.5577 27.7734C37.4236 27.1344 36.5528 26.2159 35.9452 25.0178C35.2971 23.8597 34.9731 22.5219 34.9731 21.0043C34.9731 18.6881 35.6617 16.7911 37.0388 15.3135Z" fill="url(#paint0_radial_3708_28737)"/>
<path d="M58 7.62939e-06V20.0348L49.4219 8.76522L52.2813 7.62939e-06H58Z" fill="url(#paint1_radial_3708_28737)"/>
<path fill-rule="evenodd" clip-rule="evenodd" d="M73.1883 5.94782C71.512 6.06956 69.9731 6.47586 68.5717 7.16673C67.5584 7.69001 66.6673 8.31954 65.8984 9.05533V7.31243C65.5476 7.48716 65.2033 7.67821 64.8655 7.88556C62.7188 9.20343 61.0378 11.0005 59.8227 13.2768C58.6075 15.5531 58 18.109 58 20.9444C58 23.8198 58.6075 26.3956 59.8227 28.6719C61.0378 30.9482 62.7188 32.7453 64.8655 34.0632C65.2228 34.2825 65.5873 34.4836 65.9591 34.6664V32.8427C66.7251 33.5794 67.596 34.2059 68.5717 34.7221C69.9766 35.4477 71.5196 35.8736 73.2008 36C74.8663 35.8772 76.3813 35.4712 77.746 34.782C78.85 34.2245 79.8019 33.5169 80.6016 32.6594V34.6052C80.9318 34.439 81.2559 34.2583 81.5737 34.0632C83.7204 32.7453 85.4014 30.9482 86.6165 28.6719C87.8721 26.3956 88.5 23.8198 88.5 20.9444C88.5 18.109 87.8721 15.5531 86.6165 13.2768C85.4014 11.0005 83.7204 9.20343 81.5737 7.88556C81.2559 7.69045 80.9318 7.50979 80.6016 7.34356V9.31605C79.8019 8.46724 78.85 7.7508 77.746 7.16673C76.3779 6.47586 74.8587 6.06956 73.1883 5.94782ZM78.9611 15.3135C77.584 13.8759 75.7815 13.157 73.5538 13.157C73.4414 13.157 73.33 13.1589 73.2196 13.1627C73.1092 13.1589 72.9978 13.157 72.8854 13.157C71.4273 13.157 70.1311 13.4765 68.997 14.1155C67.9034 14.7944 67.0325 15.7129 66.3844 16.871C65.7769 18.0691 65.4731 19.4468 65.4731 21.0043C65.4731 22.5219 65.7769 23.8597 66.3844 25.0178C67.0325 26.2159 67.9236 27.1344 69.0577 27.7734C70.1919 28.4523 71.4678 28.7917 72.8854 28.7917C72.9978 28.7917 73.1092 28.7897 73.2196 28.7857C73.33 28.7897 73.4414 28.7917 73.5538 28.7917C75.0524 28.7917 76.3486 28.4523 77.4422 27.7734C78.5763 27.1344 79.4472 26.2159 80.0548 25.0178C80.7028 23.8597 81.0269 22.5219 81.0269 21.0043C81.0269 18.6881 80.3383 16.7911 78.9611 15.3135Z" fill="url(#paint2_radial_3708_28737)"/>
<path d="M58 7.62939e-06V20.0348L66.5782 8.76522L63.7188 7.62939e-06H58Z" fill="url(#paint3_radial_3708_28737)"/>
<path d="M12.8604 54.759C12.6788 54.8988 12.4894 55.0305 12.292 55.1538C11.2209 55.8232 10.0185 56.1579 8.68469 56.1579C7.63382 56.1579 6.6941 55.9449 5.86552 55.5189C5.31469 55.2223 4.83978 54.8583 4.44078 54.4272V62.0002H0.5V41.1566H4.44078V42.5696C4.83978 42.1339 5.31469 41.7745 5.86552 41.4913C6.6941 41.0653 7.63382 40.8523 8.68469 40.8523C10.0185 40.8523 11.2209 41.1871 12.292 41.8565C12.4894 41.9798 12.6788 42.1114 12.8604 42.2513C12.0565 42.8706 11.4073 43.6518 10.9127 44.5951C10.7535 44.889 10.6145 45.1927 10.4957 45.5063C10.3138 45.3322 10.1143 45.1806 9.89724 45.0515C9.33139 44.7066 8.68469 44.5342 7.95716 44.5342C7.20943 44.5342 6.56274 44.7066 6.01709 45.0515C5.45123 45.3761 5.01674 45.8426 4.7136 46.4512C4.39025 47.0395 4.22858 47.7191 4.22858 48.4899C4.22858 49.6665 4.57214 50.6301 5.25925 51.3806C5.94636 52.1109 6.84566 52.4761 7.95716 52.4761C8.68469 52.4761 9.33139 52.3138 9.89724 51.9892C10.1159 51.851 10.3167 51.6933 10.4996 51.5161C10.6175 51.8248 10.7552 52.1245 10.9127 52.4152C11.4073 53.3585 12.0565 54.1397 12.8604 54.759Z" fill="url(#paint4_radial_3708_28737)"/>
<path d="M15.2076 51.5169C14.9311 51.2516 14.702 50.9425 14.5201 50.5895C14.1967 49.9809 14.0351 49.2811 14.0351 48.4899C14.0351 47.7191 14.1967 47.0395 14.5201 46.4512C14.7028 46.0844 14.9332 45.7692 15.2114 45.5056C15.5488 46.4258 15.7175 47.4308 15.7175 48.5204C15.7175 49.5988 15.5475 50.5977 15.2076 51.5169Z" fill="url(#paint5_radial_3708_28737)"/>
<path fill-rule="evenodd" clip-rule="evenodd" d="M9.40165 56.1178C8.56529 56.056 7.7975 55.8496 7.09828 55.4986C6.59274 55.2328 6.14814 54.913 5.76448 54.5393V55.4246C5.58945 55.3359 5.41767 55.2388 5.24914 55.1335C4.17806 54.4641 3.33938 53.5512 2.7331 52.3949C2.12683 51.2386 1.8237 49.9403 1.8237 48.5C1.8237 47.0395 2.12683 45.731 2.7331 44.5748C3.33938 43.4185 4.17806 42.5056 5.24914 41.8362C5.42739 41.7248 5.60927 41.6226 5.79479 41.5298V42.4562C6.17696 42.0819 6.61146 41.7637 7.09828 41.5015C7.79923 41.1329 8.5691 40.9165 9.40788 40.8523C10.2389 40.9147 10.9948 41.121 11.6756 41.471C12.2265 41.7542 12.7014 42.1136 13.1004 42.5493V41.5609C13.2652 41.6453 13.4268 41.7371 13.5854 41.8362C14.6565 42.5056 15.4952 43.4185 16.1014 44.5748C16.7279 45.731 17.0412 47.0395 17.0412 48.5C17.0412 49.9403 16.7279 51.2386 16.1014 52.3949C15.4952 53.5512 14.6565 54.4641 13.5854 55.1335C13.4268 55.2326 13.2652 55.3244 13.1004 55.4088V54.4069C12.7014 54.838 12.2265 55.2019 11.6756 55.4986C10.9931 55.8496 10.2351 56.056 9.40165 56.1178ZM12.2819 51.3603C11.5948 52.0906 10.6955 52.4558 9.584 52.4558C9.52795 52.4558 9.47237 52.4548 9.41728 52.4529C9.36218 52.4548 9.3066 52.4558 9.25055 52.4558C8.52302 52.4558 7.87633 52.2935 7.31047 51.9689C6.76483 51.6241 6.33033 51.1575 6.00699 50.5692C5.70385 49.9606 5.55228 49.2608 5.55228 48.4696C5.55228 47.6988 5.70385 47.0192 6.00699 46.4309C6.33033 45.8223 6.77493 45.3558 7.34079 45.0312C7.90664 44.6863 8.54323 44.5139 9.25055 44.5139C9.3066 44.5139 9.36218 44.5149 9.41728 44.517C9.47237 44.5149 9.52795 44.5139 9.584 44.5139C10.3317 44.5139 10.9784 44.6863 11.5241 45.0312C12.0899 45.3558 12.5244 45.8223 12.8276 46.4309C13.1509 47.0192 13.3126 47.6988 13.3126 48.4696C13.3126 49.6462 12.969 50.6098 12.2819 51.3603Z" fill="url(#paint6_radial_3708_28737)"/>
<path d="M19.8098 62.0002V47.3031H23.8112V62.0002H19.8098ZM21.8105 44.9297C21.1638 44.9297 20.6283 44.7167 20.2039 44.2907C19.7795 43.8444 19.5673 43.2967 19.5673 42.6475C19.5673 42.0187 19.7795 41.4811 20.2039 41.0348C20.6283 40.5885 21.1638 40.3654 21.8105 40.3654C22.4774 40.3654 23.013 40.5885 23.4171 41.0348C23.8415 41.4811 24.0537 42.0187 24.0537 42.6475C24.0537 43.2967 23.8415 43.8444 23.4171 44.2907C23.013 44.7167 22.4774 44.9297 21.8105 44.9297Z" fill="url(#paint7_radial_3708_28737)"/>
<path d="M35.9165 62.0002L30.2478 54.4234L35.8862 47.3031H40.4635L33.8552 55.3363L34.0067 53.3889L40.7667 62.0002H35.9165ZM26.5799 62.0002V40.0002H30.551V62.0002H26.5799Z" fill="url(#paint8_radial_3708_28737)"/>
<path d="M47.4736 54.7589C47.6551 54.8988 47.8446 55.0304 48.042 55.1537C49.113 55.8231 50.3155 56.1579 51.6493 56.1579C52.7002 56.1579 53.6399 55.9449 54.4685 55.5189C55.0193 55.2222 55.4942 54.8582 55.8932 54.4271V62.0002H59.834V41.1565H55.8932V42.5695C55.4942 42.1339 55.0193 41.7745 54.4685 41.4912C53.6399 41.0652 52.7002 40.8522 51.6493 40.8522C50.3155 40.8522 49.113 41.187 48.042 41.8564C47.8446 41.9797 47.6551 42.1113 47.4736 42.2512C48.2774 42.8705 48.9267 43.6517 49.4212 44.595C49.5805 44.8889 49.7195 45.1926 49.8383 45.5062C50.0202 45.3321 50.2196 45.1805 50.4367 45.0514C51.0026 44.7065 51.6493 44.5341 52.3768 44.5341C53.1245 44.5341 53.7712 44.7065 54.3169 45.0514C54.8827 45.376 55.3172 45.8425 55.6204 46.4511C55.9437 47.0394 56.1054 47.719 56.1054 48.4898C56.1054 49.6664 55.7618 50.63 55.0747 51.3806C54.3876 52.1108 53.4883 52.476 52.3768 52.476C51.6493 52.476 51.0026 52.3137 50.4367 51.9891C50.2181 51.851 50.0173 51.6932 49.8344 51.516C49.7165 51.8247 49.5788 52.1244 49.4212 52.4151C48.9267 53.3584 48.2774 54.1396 47.4736 54.7589Z" fill="url(#paint9_radial_3708_28737)"/>
<path d="M45.1264 51.5169C45.4029 51.2515 45.632 50.9424 45.8139 50.5894C46.1372 49.9808 46.2989 49.281 46.2989 48.4898C46.2989 47.719 46.1372 47.0394 45.8139 46.4511C45.6312 46.0843 45.4008 45.7691 45.1226 45.5055C44.7852 46.4257 44.6165 47.4307 44.6165 48.5203C44.6165 49.5987 44.7865 50.5976 45.1264 51.5169Z" fill="url(#paint10_radial_3708_28737)"/>
<path fill-rule="evenodd" clip-rule="evenodd" d="M50.9323 56.1177C51.7687 56.0559 52.5365 55.8495 53.2357 55.4986C53.7412 55.2327 54.1858 54.913 54.5695 54.5392V55.4245C54.7445 55.3358 54.9163 55.2387 55.0848 55.1334C56.1559 54.464 56.9946 53.5511 57.6009 52.3948C58.2071 51.2385 58.5103 49.9402 58.5103 48.5C58.5103 47.0394 58.2071 45.731 57.6009 44.5747C56.9946 43.4184 56.1559 42.5055 55.0848 41.8361C54.9066 41.7247 54.7247 41.6225 54.5392 41.5297V42.4561C54.157 42.0818 53.7225 41.7636 53.2357 41.5014C52.5347 41.1328 51.7649 40.9164 50.9261 40.8522C50.0951 40.9147 49.3392 41.1209 48.6583 41.4709C48.1075 41.7541 47.6326 42.1136 47.2336 42.5492V41.5608C47.0688 41.6452 46.9071 41.737 46.7486 41.8361C45.6775 42.5055 44.8388 43.4184 44.2325 44.5747C43.6061 45.731 43.2928 47.0394 43.2928 48.5C43.2928 49.9402 43.6061 51.2385 44.2325 52.3948C44.8388 53.5511 45.6775 54.464 46.7486 55.1334C46.9071 55.2325 47.0688 55.3243 47.2336 55.4087V54.4068C47.6326 54.8379 48.1075 55.2019 48.6583 55.4986C49.3409 55.8495 50.0989 56.0559 50.9323 56.1177ZM48.0521 51.3603C48.7392 52.0905 49.6385 52.4557 50.75 52.4557C50.806 52.4557 50.8616 52.4547 50.9167 52.4528C50.9718 52.4547 51.0274 52.4557 51.0834 52.4557C51.811 52.4557 52.4576 52.2934 53.0235 51.9688C53.5691 51.624 54.0036 51.1574 54.327 50.5691C54.6301 49.9605 54.7817 49.2607 54.7817 48.4695C54.7817 47.6987 54.6301 47.0191 54.327 46.4308C54.0036 45.8222 53.559 45.3557 52.9932 45.0311C52.4273 44.6862 51.7907 44.5138 51.0834 44.5138C51.0274 44.5138 50.9718 44.5148 50.9167 44.5169C50.8616 44.5148 50.806 44.5138 50.75 44.5138C50.0022 44.5138 49.3555 44.6862 48.8099 45.0311C48.244 45.3557 47.8095 45.8222 47.5064 46.4308C47.1831 47.0191 47.0214 47.6987 47.0214 48.4695C47.0214 49.6461 47.365 50.6097 48.0521 51.3603Z" fill="url(#paint11_radial_3708_28737)"/>
<path d="M68.9988 62.0002C67.7054 62.0002 66.5535 61.7263 65.5431 61.1786C64.5528 60.6309 63.7748 59.8702 63.2089 58.8964C62.643 57.9227 62.3601 56.7969 62.3601 55.5189V46.9988H66.3615V55.4276C66.3615 56.0361 66.4626 56.5636 66.6647 57.0099C66.8667 57.4359 67.1699 57.7604 67.5741 57.9836C67.9782 58.2067 68.4532 58.3183 68.9988 58.3183C69.8274 58.3183 70.4741 58.0647 70.9389 57.5576C71.4037 57.0504 71.6361 56.3404 71.6361 55.4276V46.9988H75.6072V55.5189C75.6072 56.8171 75.3243 57.9531 74.7584 58.9269C74.2128 59.9006 73.4347 60.6613 72.4243 61.209C71.434 61.7364 70.2922 62.0002 68.9988 62.0002Z" fill="url(#paint12_radial_3708_28737)"/>
<path d="M78.3758 62.0002V47.3031H82.3772V62.0002H78.3758ZM80.3765 44.9297C79.7299 44.9297 79.1943 44.7167 78.7699 44.2907C78.3455 43.8444 78.1333 43.2967 78.1333 42.6475C78.1333 42.0187 78.3455 41.4811 78.7699 41.0348C79.1943 40.5885 79.7299 40.3654 80.3765 40.3654C81.0434 40.3654 81.579 40.5885 81.9832 41.0348C82.4076 41.4811 82.6198 42.0187 82.6198 42.6475C82.6198 43.2967 82.4076 43.8444 81.9832 44.2907C81.579 44.7167 81.0434 44.9297 80.3765 44.9297Z" fill="url(#paint13_radial_3708_28737)"/>
<path d="M93.0275 62.0002C91.532 62.0002 90.1881 61.6654 88.9957 60.996C87.8034 60.3266 86.8637 59.4137 86.1766 58.2574C85.4895 57.1011 85.1459 55.8029 85.1459 54.3626C85.1459 52.902 85.4895 51.5936 86.1766 50.4373C86.8637 49.281 87.8034 48.3681 88.9957 47.6987C90.2083 47.009 91.5522 46.6641 93.0275 46.6641C94.1794 46.6641 95.2404 46.8771 96.2104 47.3031C97.1804 47.7291 98.0191 48.3377 98.7264 49.1288L96.1801 51.7153C95.7961 51.2893 95.3313 50.9647 94.7856 50.7416C94.2602 50.5184 93.6741 50.4068 93.0275 50.4068C92.2999 50.4068 91.6431 50.5793 91.0571 50.9241C90.4912 51.2487 90.0365 51.7051 89.6929 52.2934C89.3696 52.8614 89.2079 53.541 89.2079 54.3321C89.2079 55.103 89.3696 55.7927 89.6929 56.4013C90.0365 56.9896 90.4912 57.4561 91.0571 57.801C91.6431 58.1256 92.2999 58.2879 93.0275 58.2879C93.6944 58.2879 94.2905 58.1763 94.816 57.9531C95.3616 57.7097 95.8264 57.3649 96.2104 56.9186L98.7871 59.505C98.0393 60.3164 97.1804 60.9352 96.2104 61.3612C95.2404 61.7872 94.1794 62.0002 93.0275 62.0002Z" fill="url(#paint14_radial_3708_28737)"/>
<path d="M110.65 62.0002L104.981 54.4234L110.619 47.3031H115.197L108.588 55.3363L108.74 53.3889L115.5 62.0002H110.65ZM101.313 62.0002V40.0002H105.284V62.0002H101.313Z" fill="url(#paint15_radial_3708_28737)"/>
<defs>
<radialGradient id="paint0_radial_3708_28737" cx="0" cy="0" r="1" gradientTransform="matrix(-6.49537 -12.2435 12.4259 -6.4 41.9027 19.8609)" gradientUnits="userSpaceOnUse">
<stop stop-color="#4A85E4"/>
<stop offset="1" stop-color="#548FEE"/>
</radialGradient>
<radialGradient id="paint1_radial_3708_28737" cx="0" cy="0" r="1" gradientTransform="matrix(-1.82682 -8.16232 3.49479 -4.26667 53.4727 9.27537)" gradientUnits="userSpaceOnUse">
<stop stop-color="#4A85E4"/>
<stop offset="1" stop-color="#548FEE"/>
</radialGradient>
<radialGradient id="paint2_radial_3708_28737" cx="0" cy="0" r="1" gradientTransform="matrix(6.49537 -12.2435 -12.4259 -6.4 74.0972 19.8609)" gradientUnits="userSpaceOnUse">
<stop stop-color="#4A85E4"/>
<stop offset="1" stop-color="#548FEE"/>
</radialGradient>
<radialGradient id="paint3_radial_3708_28737" cx="0" cy="0" r="1" gradientTransform="matrix(1.82682 -8.16232 -3.49479 -4.26667 62.5274 9.27537)" gradientUnits="userSpaceOnUse">
<stop stop-color="#4A85E4"/>
<stop offset="1" stop-color="#548FEE"/>
</radialGradient>
<radialGradient id="paint4_radial_3708_28737" cx="0" cy="0" r="1" gradientTransform="matrix(24.4907 8.96296 -46.8519 4.68519 61.1944 51.8151)" gradientUnits="userSpaceOnUse">
<stop stop-color="#4A85E4"/>
<stop offset="1" stop-color="#548FEE"/>
</radialGradient>
<radialGradient id="paint5_radial_3708_28737" cx="0" cy="0" r="1" gradientTransform="matrix(24.4907 8.96296 -46.8519 4.68519 61.1944 51.8151)" gradientUnits="userSpaceOnUse">
<stop stop-color="#4A85E4"/>
<stop offset="1" stop-color="#548FEE"/>
</radialGradient>
<radialGradient id="paint6_radial_3708_28737" cx="0" cy="0" r="1" gradientTransform="matrix(24.4907 8.96296 -46.8519 4.68519 61.1944 51.8151)" gradientUnits="userSpaceOnUse">
<stop stop-color="#4A85E4"/>
<stop offset="1" stop-color="#548FEE"/>
</radialGradient>
<radialGradient id="paint7_radial_3708_28737" cx="0" cy="0" r="1" gradientTransform="matrix(24.4907 8.96296 -46.8519 4.68519 61.1944 51.8151)" gradientUnits="userSpaceOnUse">
<stop stop-color="#4A85E4"/>
<stop offset="1" stop-color="#548FEE"/>
</radialGradient>
<radialGradient id="paint8_radial_3708_28737" cx="0" cy="0" r="1" gradientTransform="matrix(24.4907 8.96296 -46.8519 4.68519 61.1944 51.8151)" gradientUnits="userSpaceOnUse">
<stop stop-color="#4A85E4"/>
<stop offset="1" stop-color="#548FEE"/>
</radialGradient>
<radialGradient id="paint9_radial_3708_28737" cx="0" cy="0" r="1" gradientTransform="matrix(24.4907 8.96296 -46.8519 4.68519 61.1944 51.8151)" gradientUnits="userSpaceOnUse">
<stop stop-color="#4A85E4"/>
<stop offset="1" stop-color="#548FEE"/>
</radialGradient>
<radialGradient id="paint10_radial_3708_28737" cx="0" cy="0" r="1" gradientTransform="matrix(24.4907 8.96296 -46.8519 4.68519 61.1944 51.8151)" gradientUnits="userSpaceOnUse">
<stop stop-color="#4A85E4"/>
<stop offset="1" stop-color="#548FEE"/>
</radialGradient>
<radialGradient id="paint11_radial_3708_28737" cx="0" cy="0" r="1" gradientTransform="matrix(24.4907 8.96296 -46.8519 4.68519 61.1944 51.8151)" gradientUnits="userSpaceOnUse">
<stop stop-color="#4A85E4"/>
<stop offset="1" stop-color="#548FEE"/>
</radialGradient>
<radialGradient id="paint12_radial_3708_28737" cx="0" cy="0" r="1" gradientTransform="matrix(24.4907 8.96296 -46.8519 4.68519 61.1944 51.8151)" gradientUnits="userSpaceOnUse">
<stop stop-color="#4A85E4"/>
<stop offset="1" stop-color="#548FEE"/>
</radialGradient>
<radialGradient id="paint13_radial_3708_28737" cx="0" cy="0" r="1" gradientTransform="matrix(24.4907 8.96296 -46.8519 4.68519 61.1944 51.8151)" gradientUnits="userSpaceOnUse">
<stop stop-color="#4A85E4"/>
<stop offset="1" stop-color="#548FEE"/>
</radialGradient>
<radialGradient id="paint14_radial_3708_28737" cx="0" cy="0" r="1" gradientTransform="matrix(24.4907 8.96296 -46.8519 4.68519 61.1944 51.8151)" gradientUnits="userSpaceOnUse">
<stop stop-color="#4A85E4"/>
<stop offset="1" stop-color="#548FEE"/>
</radialGradient>
<radialGradient id="paint15_radial_3708_28737" cx="0" cy="0" r="1" gradientTransform="matrix(24.4907 8.96296 -46.8519 4.68519 61.1944 51.8151)" gradientUnits="userSpaceOnUse">
<stop stop-color="#4A85E4"/>
<stop offset="1" stop-color="#548FEE"/>
</radialGradient>
</defs>
</svg>
