<svg width="20" height="20" viewBox="0 0 20 20" fill="none" xmlns="http://www.w3.org/2000/svg">
<g clip-path="url(#clip0_3708_28831)">
<path d="M5.83333 8.05587C5.83333 7.46643 6.06749 6.90113 6.48429 6.48433C6.90109 6.06753 7.46639 5.83337 8.05583 5.83337H15.2775C15.5694 5.83337 15.8584 5.89086 16.128 6.00255C16.3977 6.11424 16.6427 6.27795 16.849 6.48433C17.0554 6.69071 17.2191 6.93571 17.3308 7.20536C17.4425 7.47501 17.5 7.76401 17.5 8.05587V15.2775C17.5 15.5694 17.4425 15.8584 17.3308 16.1281C17.2191 16.3977 17.0554 16.6427 16.849 16.8491C16.6427 17.0555 16.3977 17.2192 16.128 17.3309C15.8584 17.4426 15.5694 17.5 15.2775 17.5H8.05583C7.76397 17.5 7.47497 17.4426 7.20532 17.3309C6.93567 17.2192 6.69067 17.0555 6.48429 16.8491C6.27791 16.6427 6.1142 16.3977 6.00251 16.1281C5.89082 15.8584 5.83333 15.5694 5.83333 15.2775V8.05587Z" stroke="#070D17" stroke-width="1.66667" stroke-linecap="round" stroke-linejoin="round"/>
<path d="M3.34333 13.9475C3.0875 13.8021 2.87471 13.5916 2.72658 13.3374C2.57846 13.0832 2.50028 12.7942 2.5 12.5V4.16667C2.5 3.25 3.25 2.5 4.16667 2.5H12.5C13.125 2.5 13.465 2.82083 13.75 3.33333" stroke="#070D17" stroke-width="1.66667" stroke-linecap="round" stroke-linejoin="round"/>
<path d="M9.16667 11.6667L10.8333 13.3333L14.1667 10" stroke="#070D17" stroke-width="1.66667" stroke-linecap="round" stroke-linejoin="round"/>
</g>
<defs>
<clipPath id="clip0_3708_28831">
<rect width="20" height="20" fill="white"/>
</clipPath>
</defs>
</svg>
