<svg width="20" height="20" viewBox="0 0 20 20" fill="none" xmlns="http://www.w3.org/2000/svg">
<g clip-path="url(#clip0_3708_28785)">
<path d="M2.5 6.66663C2.5 6.00358 2.76339 5.3677 3.23223 4.89886C3.70107 4.43002 4.33696 4.16663 5 4.16663H15C15.663 4.16663 16.2989 4.43002 16.7678 4.89886C17.2366 5.3677 17.5 6.00358 17.5 6.66663V13.3333C17.5 13.9963 17.2366 14.6322 16.7678 15.1011C16.2989 15.5699 15.663 15.8333 15 15.8333H5C4.33696 15.8333 3.70107 15.5699 3.23223 15.1011C2.76339 14.6322 2.5 13.9963 2.5 13.3333V6.66663Z" stroke="#070D17" stroke-width="1.66667" stroke-linecap="round" stroke-linejoin="round"/>
<path d="M2.5 8.33337H17.5" stroke="#070D17" stroke-width="1.66667" stroke-linecap="round" stroke-linejoin="round"/>
<path d="M5.83333 12.5H5.84167" stroke="#070D17" stroke-width="1.66667" stroke-linecap="round" stroke-linejoin="round"/>
<path d="M9.16667 12.5H10.8333" stroke="#070D17" stroke-width="1.66667" stroke-linecap="round" stroke-linejoin="round"/>
</g>
<defs>
<clipPath id="clip0_3708_28785">
<rect width="20" height="20" fill="white"/>
</clipPath>
</defs>
</svg>
