<svg width="20" height="20" viewBox="0 0 20 20" fill="none" xmlns="http://www.w3.org/2000/svg">
<path fill-rule="evenodd" clip-rule="evenodd" d="M10 2.5C5.39763 2.5 1.66667 6.23096 1.66667 10.8333V13.3201C1.6665 13.3296 1.6665 13.3391 1.66667 13.3486V15.3431C1.66667 16.5343 2.63233 17.5 3.82353 17.5C5.01473 17.5 5.98039 16.5343 5.98039 15.3431V13.5422C5.98039 11.9241 4.55135 11.1746 3.33333 11.4231V10.8333C3.33333 7.15143 6.3181 4.16667 10 4.16667C13.6819 4.16667 16.6667 7.15143 16.6667 10.8333V11.4143C15.449 11.1655 14.0196 11.9126 14.0196 13.5324V15.3431C14.0196 15.7402 14.1269 16.1122 14.3141 16.4317C13.5764 16.7984 12.5699 17.0834 11.25 17.0834C10.7898 17.0834 10.4167 17.4565 10.4167 17.9167C10.4167 18.3769 10.7898 18.75 11.25 18.75C13.2866 18.75 14.7963 18.1755 15.8304 17.4724C15.943 17.4906 16.0587 17.5 16.1765 17.5C17.3677 17.5 18.3333 16.5343 18.3333 15.3431V13.3482C18.3335 13.339 18.3335 13.3298 18.3333 13.3206V10.8333C18.3333 6.23096 14.6024 2.5 10 2.5ZM16.0433 15.815C16.0856 15.827 16.1303 15.8333 16.1765 15.8333C16.4472 15.8333 16.6667 15.6139 16.6667 15.3431V13.4069C16.6324 13.2496 16.5616 13.1698 16.4969 13.1234C16.4126 13.063 16.2883 13.0255 16.1466 13.0361C16.005 13.0468 15.8876 13.1025 15.8134 13.1748C15.7505 13.2361 15.6863 13.3386 15.6863 13.5324V15.3431C15.6863 15.5258 15.7862 15.6852 15.9344 15.7695C15.9716 15.782 16.008 15.7972 16.0433 15.815ZM3.33333 15.3431V13.4106C3.36881 13.2559 3.43955 13.1771 3.50435 13.1311C3.58898 13.0711 3.71335 13.0342 3.8545 13.0453C3.99565 13.0565 4.1127 13.1124 4.18686 13.185C4.24986 13.2466 4.31373 13.3493 4.31373 13.5422V15.3431C4.31373 15.6139 4.09426 15.8333 3.82353 15.8333C3.5528 15.8333 3.33333 15.6139 3.33333 15.3431Z" fill="#070D17"/>
</svg>
