<svg width="20" height="20" viewBox="0 0 20 20" fill="none" xmlns="http://www.w3.org/2000/svg">
<path fill-rule="evenodd" clip-rule="evenodd" d="M11.9121 1.98757C10.7644 1.18416 9.23674 1.18416 8.08901 1.98757L2.35769 5.99949C1.39218 6.67535 0.855327 7.81083 0.945718 8.98592L1.53323 16.6236C1.64404 18.0641 2.94921 19.1111 4.37942 18.9068L7.02077 18.5294C8.25239 18.3535 9.16722 17.2987 9.16722 16.0545V15C9.16722 14.5398 9.54031 14.1667 10.0005 14.1667C10.4608 14.1667 10.8339 14.5398 10.8339 15V16.0545C10.8339 17.2987 11.7487 18.3535 12.9803 18.5294L15.6217 18.9068C17.0519 19.1111 18.3571 18.0641 18.4679 16.6236L19.0554 8.98592C19.1458 7.81083 18.6089 6.67535 17.6434 5.99949L11.9121 1.98757ZM9.04478 3.35296C9.61864 2.95125 10.3825 2.95125 10.9563 3.35296L16.6876 7.36488C17.1704 7.70281 17.4388 8.27055 17.3936 8.85809L16.8061 16.4958C16.7692 16.976 16.3341 17.3249 15.8574 17.2568L13.216 16.8795C12.8055 16.8209 12.5005 16.4693 12.5005 16.0545V15C12.5005 13.6193 11.3813 12.5 10.0005 12.5C8.61984 12.5 7.50055 13.6193 7.50055 15V16.0545C7.50055 16.4693 7.19561 16.8209 6.78507 16.8795L4.14372 17.2568C3.66699 17.3249 3.23193 16.976 3.19499 16.4958L2.60748 8.85809C2.56228 8.27055 2.83071 7.70281 3.31346 7.36488L9.04478 3.35296Z" fill="white"/>
</svg>
