<svg width="20" height="20" viewBox="0 0 20 20" fill="none" xmlns="http://www.w3.org/2000/svg">
<path d="M6.25001 3.33329C6.71024 3.33329 7.08334 2.9602 7.08334 2.49996C7.08334 2.03972 6.71024 1.66663 6.25001 1.66663H5.00001C3.15906 1.66663 1.66667 3.15901 1.66667 4.99996V15C1.66667 16.8409 3.15906 18.3333 5.00001 18.3333H6.25C6.71024 18.3333 7.08334 17.9602 7.08334 17.5C7.08334 17.0397 6.71024 16.6666 6.25 16.6666H5.00001C4.07953 16.6666 3.33334 15.9204 3.33334 15L3.33334 4.99996C3.33334 4.07948 4.07953 3.33329 5.00001 3.33329H6.25001Z" fill="#070D17"/>
<path d="M18.9226 10.5892C19.248 10.2638 19.248 9.73614 18.9226 9.4107L15.5893 6.07737C15.2638 5.75193 14.7362 5.75193 14.4107 6.07737C14.0853 6.40281 14.0853 6.93044 14.4107 7.25588L16.3215 9.16663L6.66667 9.16663C6.20643 9.16663 5.83334 9.53972 5.83334 9.99996C5.83334 10.4602 6.20643 10.8333 6.66667 10.8333H16.3215L14.4107 12.744C14.0853 13.0695 14.0853 13.5971 14.4107 13.9225C14.7362 14.248 15.2638 14.248 15.5893 13.9225L18.9226 10.5892Z" fill="#070D17"/>
</svg>
